<svg xmlns="http://www.w3.org/2000/svg" viewBox="0 0 26.28 13.28"><defs><style>.cls-1{fill:#0d3c60;}</style></defs><title>Ресурс 3</title><g id="Слой_2" data-name="Слой 2"><g id="Layer_1" data-name="Layer 1"><path class="cls-1" d="M13.1,6.11l12.1-6a.74.74,0,0,1,1.08.67v.43a.74.74,0,0,1-.43.67L16.71,6.21a.74.74,0,0,0,0,1.36l9.07,3.77a.75.75,0,0,1,.46.69v.5a.74.74,0,0,1-1.05.68L13.13,7.9a.75.75,0,0,1-.44-.68V6.78A.76.76,0,0,1,13.1,6.11Z"/><path class="cls-1" d="M.41,6.11l12.1-6a.74.74,0,0,1,1.08.67v.43a.73.73,0,0,1-.42.67L4,6.21a.74.74,0,0,0,0,1.36l9.07,3.77a.75.75,0,0,1,.46.69v.5a.74.74,0,0,1-1,.68L.45,7.9A.74.74,0,0,1,0,7.22V6.78A.76.76,0,0,1,.41,6.11Z"/></g></g></svg>