<svg xmlns="http://www.w3.org/2000/svg" viewBox="0 0 31.06 33.79"><defs><style>.cls-1{fill:#fff;stroke:#0d3c60;stroke-miterlimit:10;}.cls-2{fill:#0d3c60;}</style></defs><title>Ресурс 1</title><g id="Слой_2" data-name="Слой 2"><g id="Layer_1" data-name="Layer 1"><rect class="cls-1" x="0.5" y="3.23" width="30.06" height="30.06" rx="7.56" ry="7.56"/><path class="cls-2" d="M9.09,3.23H22a8.59,8.59,0,0,1,8.59,8.59v1.74a0,0,0,0,1,0,0H.5a0,0,0,0,1,0,0V11.82A8.59,8.59,0,0,1,9.09,3.23Z"/><rect class="cls-1" x="21.41" y="0.5" width="3.77" height="6.22" rx="1.89" ry="1.89"/><rect class="cls-1" x="6.47" y="0.5" width="3.77" height="6.22" rx="1.89" ry="1.89"/><rect class="cls-2" x="3.28" y="17.32" width="4.3" height="4.3"/><rect class="cls-2" x="10.04" y="17.32" width="4.3" height="4.3"/><rect class="cls-2" x="16.71" y="17.32" width="4.3" height="4.3"/><rect class="cls-2" x="23.48" y="17.32" width="4.3" height="4.3"/><rect class="cls-2" x="3.28" y="24.68" width="4.3" height="4.3"/><rect class="cls-2" x="10.04" y="24.68" width="4.3" height="4.3"/><rect class="cls-2" x="16.71" y="24.68" width="4.3" height="4.3"/><rect class="cls-2" x="23.48" y="24.68" width="4.3" height="4.3"/></g></g></svg>