<svg xmlns="http://www.w3.org/2000/svg" viewBox="0 0 31.27 38.9"><defs><style>.cls-1{fill:#0d3c60;}</style></defs><title>Ресурс 11</title><g id="Слой_2" data-name="Слой 2"><g id="Layer_1" data-name="Layer 1"><path class="cls-1" d="M7.27,0a5,5,0,0,1,.54.2A2.89,2.89,0,0,1,9.15,1.38l4.11,6a2.86,2.86,0,0,1-.76,4.21c-1,.71-2,1.4-3,2.1l0,0A25.85,25.85,0,0,0,19.3,28a4.3,4.3,0,0,1,.42-.35c1-.67,1.92-1.37,2.92-2a2.75,2.75,0,0,1,3.78.82c1.45,2.08,2.87,4.17,4.31,6.25a3.51,3.51,0,0,1,.54,1.65l-.16.88A3.38,3.38,0,0,1,30,36.66a20.92,20.92,0,0,1-2.34,1.43,8,8,0,0,1-4.49.75,13.92,13.92,0,0,1-4.26-1.34,26.65,26.65,0,0,1-7.84-5.76A48.59,48.59,0,0,1,1.66,17.63,17,17,0,0,1,.1,8.68a13.26,13.26,0,0,1,1-3.95,9.26,9.26,0,0,1,2.24-3A9.81,9.81,0,0,1,5.27.44,6,6,0,0,1,6.63,0a2.79,2.79,0,0,1,.58,0Z"/></g></g></svg>